# xmcd
#
# Track frame offsets: 
#        150
#        10154
#        17446
#        27610
#        36564
#        47197
#        56532
#        67646
#        77090
#        89031
#        97929
#        106763
#        116967
#        127285
#        136023
#        149639
#        158602
#        170315
#        178713
#        189649
#        197407
#        208983
#        220900
#        233501
#        244960
#        254488
#        266008
#        276029
#        288778
#        298943
#
# Disc length: 4107 seconds
#
# Revision: 0
# Processed by: cddbd v1.5.1PL0 Copyright (c) Steve Scherf et al.
# Submitted via: ExactAudioCopy v0.95a4
#
DISCID=c110091e
DTITLE=Various Artist - Sweet Little Boppin'
DYEAR=1900
DGENRE=Country
TTITLE0=Johnny DeChaine and The Cara Sisters - Come On Home
TTITLE1=Chizo Jones and The Play Boys - Wild Living
TTITLE2=Jim Pipkins and The Tall Timber Boys - Another Lonely Night
TTITLE3=Ray Lunsford - Carroll County Blues
TTITLE4=Kenny Thompson and His Westernaires - Hot To Trot
TTITLE5=The Rengo Bros. and The Valley Sta. Playboys - Just Over A Girl
TTITLE6=Ralph Pruett - Louise
TTITLE7=Bill Lyon and His Sierra String Band - 1-2-3-4-5-6-7-8-9-10 Time
TTITLE7=s
TTITLE8=Larry Bryant - Tiquela and Mexican Twist
TTITLE9=George and Pee Wee (The Tennessee Pals) - Tennessee Twist
TTITLE10=Bob Roark and The Country Band - The Road To Your Heart
TTITLE11=Kenny Thompson and His Westernaires - Flame Room Boogie
TTITLE12=Ichabod Powell - Taters And Beans
TTITLE13=Charles (Shorty) Bacon and His Rhythm Rascals - You're Smiling 
TTITLE13=At Me
TTITLE14=Alton Guyon and His Boogie Blues Boys - Leave My Baby Alone
TTITLE15=Doug and The Swing Boys - Swingin' With Doug
TTITLE16=Jimmie Dawson - Walking 'Round In Circles
TTITLE17=Marty Clifford - Sweet Little You
TTITLE18=Ichabod Powell - No Midnight Smoochin
TTITLE19=Howard Perkins - Under Control
TTITLE20=Howard Hebert and The Pleasure Seekers - "Rockin" Country Style
TTITLE21=Ramblin' Tommy Scott - Teen Age Boogie
TTITLE22=Jerry Gray and The Southern Gentlemen - Hearts Breaking
TTITLE23=Al Runyon - Rhumba Boogie
TTITLE24=Jerry Irby - Betty Baby
TTITLE25=Dakota Roundup - Oklahoma Stomp
TTITLE26=Lefty Nicks and The Southern Drifters - Always Alone
TTITLE27=Howard Perkins - Johnny Overload
TTITLE28=Jimmie Dawson - Devil-Eyes
TTITLE29=Jim Pipkins and the Tall Timber Boys - Chew Tobacco Rag
EXTD=
EXTT0=
EXTT1=
EXTT2=
EXTT3=
EXTT4=
EXTT5=
EXTT6=
EXTT7=
EXTT8=
EXTT9=
EXTT10=
EXTT11=
EXTT12=
EXTT13=
EXTT14=
EXTT15=
EXTT16=
EXTT17=
EXTT18=
EXTT19=
EXTT20=
EXTT21=
EXTT22=
EXTT23=
EXTT24=
EXTT25=
EXTT26=
EXTT27=
EXTT28=
EXTT29=
PLAYORDER=
